<svg width="645" height="767" viewBox="0 0 645 767" fill="none" xmlns="http://www.w3.org/2000/svg">
<path d="M275.065 402.147L354.531 387.087C354.531 387.087 366.775 379.129 410.977 416.104C438.466 439.061 406.998 458.878 466.689 463.653C553.991 470.631 703.333 566.074 619.811 716.315C573.528 799.57 548.742 694.246 487.137 709.519C475.383 713.682 467.669 716.315 466.689 716.315C461.669 716.315 272.494 595.288 272.494 595.288L275.065 402.147Z" fill="#1E1735"/>
<path d="M49.0966 727.822C60.1777 704.988 72.3607 675.787 83.9316 634.894C95.0128 595.592 143.868 599.755 190.58 578.206C237.353 556.658 285.718 544.17 332.002 573.248C387.836 608.264 444.955 614.263 473.668 653.137C477.648 658.585 482.423 668.625 483.525 670.767C488.606 680.868 496.14 710.806 499.384 722.866C483.405 732.232 465.403 721.027 453.404 726.047C320.676 781.693 172.336 777.041 49.0966 727.822Z" fill="#FFBCB0"/>
<path d="M429.342 284.795C429.036 281.55 430.321 278.857 432.342 277.02C431.362 277.571 430.26 277.938 429.036 278.183C424.934 278.918 417.954 277.571 416.485 270.837C415.934 264.838 420.526 261.899 422.607 260.92C425.24 259.634 427.75 259.512 429.77 259.879C427.199 258.777 425.117 256.635 424.444 253.513C423.403 243.412 435.709 239.31 442.137 243.473C443.239 244.208 444.77 245.493 445.627 247.636C445.688 239.739 455.789 234.29 463.32 238.759C468.952 242.126 469.136 249.105 464.973 253.39C465.156 253.268 465.279 253.207 465.462 253.145C467.421 252.227 468.523 252.105 469.932 251.921C470.115 251.921 473.727 251.493 477.156 253.635C484.87 258.594 482.36 269.613 473.054 271.878C470.85 272.429 469.136 272.184 468.401 272.123C468.156 272.123 467.911 272 467.666 271.939C468.034 272.123 468.34 272.306 468.707 272.551C476.176 277.51 473.605 288.345 464.483 290.427C462.034 290.978 458.299 291.1 454.443 288.284C453.953 287.978 452.483 286.631 451.688 284.978C451.443 284.427 451.32 283.815 451.198 283.203C451.198 287.611 447.831 292.018 442.137 292.998C439.198 293.304 431.056 292.875 429.342 284.795Z" fill="white"/>
<path d="M450.281 272.062C456.587 270.531 458.363 263.124 453.098 259.941C448.139 256.88 440.302 260.308 440.914 266.797C442.016 271.756 447.037 272.858 450.281 272.062Z" fill="#FFBCB0"/>
<path d="M429.099 278.122C437.119 276.653 441.649 267.103 434.792 261.777C434.731 261.716 429.16 257.614 422.609 260.798C420.589 261.777 415.936 264.716 416.487 270.715C418.018 277.571 424.997 278.857 429.099 278.122Z" fill="#FFD700"/>
<path d="M473.117 271.755C482.423 269.551 484.933 258.471 477.219 253.512C473.791 251.37 470.179 251.798 469.995 251.798C468.587 251.982 467.485 252.104 465.526 253.023C464.24 253.635 463.383 254.737 462.22 255.41C462.159 255.41 458.914 258.042 459.404 263.674C460.016 266.49 461.118 268.633 464.607 270.653C465.158 270.959 465.771 270.898 466.383 271.082C467.117 271.327 467.73 271.816 468.526 271.878C469.199 272.061 470.913 272.306 473.117 271.755Z" fill="#FFD700"/>
<path d="M437.608 260.43C441.71 259.389 444.894 256.512 445.873 252.839C446.241 251.553 446.241 251.553 445.751 249.41C445.629 248.798 445.812 248.186 445.567 247.635C444.71 245.493 443.241 244.207 442.078 243.472C435.588 239.31 423.344 243.411 424.385 253.512C425.793 259.511 432.16 261.715 437.608 260.43Z" fill="#FFD700"/>
<path d="M464.607 290.243C473.729 288.161 476.301 277.326 468.831 272.367C462.281 268.021 451.873 271.449 450.894 280.387C451.383 281.856 451.138 283.386 451.812 284.794C452.608 286.447 454.138 287.794 454.567 288.1C458.363 290.916 462.097 290.855 464.607 290.243Z" fill="#FFD700"/>
<path d="M442.2 292.815C451.139 291.284 454.445 281.245 447.71 276.041C440.915 270.838 428.487 275.368 429.405 284.795C431.058 292.876 439.2 293.305 442.2 292.815Z" fill="#FFD700"/>
<path d="M459.955 256.389C468.709 253.696 470.73 243.105 463.322 238.697C455.302 233.923 444.282 240.473 445.751 249.166C446.976 255.593 454.2 258.165 459.955 256.389Z" fill="#FFD700"/>
<path d="M324.349 25.293C321.349 26.5786 320.859 34.598 320.92 36.557C321.226 43.1685 323.981 50.7594 327.532 59.0238C323.186 64.6558 318.655 66.0026 314.186 69.9817C305.309 77.8175 309.472 80.2662 309.839 80.4499C315.472 82.8986 327.043 73.5323 331.083 67.0433C333.104 71.5733 335.185 76.2259 337.144 81.062C337.573 82.1639 338.001 83.3883 338.307 84.6126C338.001 85.0412 337.695 85.5309 337.328 86.0206C326.859 99.1824 319.023 98.509 309.839 103.59C295.697 111.487 300.595 115.956 301.023 116.262C307.941 121.282 326.92 111.487 333.777 103.957C334.94 102.672 337.267 100.101 339.287 96.6725C337.328 125.69 309.105 162.971 283.085 139.831C277.086 134.505 275.494 143.81 263.801 144.116C253.883 144.361 246.903 134.75 244.577 131.811C232.761 116.874 230.741 92.5709 239.802 73.2874C248.495 54.9222 266.8 42.1278 283.085 38.6996C288.718 37.4752 308.003 37.5365 311.982 32.7003C316.757 26.8234 320.614 24.4972 323.124 23.5177C325.145 22.5382 326.43 24.3747 324.349 25.293ZM318.349 56.4526C318.165 56.3302 317.798 56.3302 316.757 56.82C315.9 57.2485 310.574 60.0033 310.084 65.3292C310.023 66.2474 309.901 67.2269 310.452 67.5942C311.553 68.3288 314.615 66.2474 316.451 63.7987C318.472 60.9827 319.329 57.0648 318.349 56.4526Z" fill="#346E00"/>
<path d="M490.015 405.697C485.362 405.82 479.729 395.78 478.627 393.148C474.954 384.394 473.852 372.824 473.301 359.907C464.179 355.254 457.506 356.295 449.18 353.908C432.772 349.194 436.69 343.439 437.058 343.011C442.813 336.338 463.689 341.358 472.934 347.296C472.75 340.195 472.628 332.788 472.199 325.38C472.077 323.666 471.832 321.891 471.526 320.116C470.852 319.687 470.179 319.32 469.383 318.891C447.71 308.301 437.854 314.055 422.793 313.076C399.59 311.545 403.141 302.73 403.508 302.056C409.447 291.221 440.119 292.262 453.649 297.832C455.975 298.812 460.506 300.71 465.281 303.893C444.833 267.407 385.019 236.431 365.551 282.589C361.082 293.18 353.184 282.161 337.879 288.956C324.839 294.71 321.778 311.545 320.553 316.81C314.492 343.501 326.859 376.374 350.552 395.78C373.204 414.329 404.855 419.533 428.119 413.962C436.201 412.003 461.24 400.065 469.383 403.922C479.24 408.575 485.668 409.187 489.525 409.003C492.769 408.758 493.32 405.636 490.015 405.697ZM462.955 368.967C462.771 369.273 462.342 369.518 460.689 369.457C459.281 369.457 450.71 369.151 446.792 362.539C446.119 361.437 445.384 360.213 445.874 359.417C446.792 357.764 452.118 358.56 455.975 360.641C460.322 363.029 463.873 367.559 462.955 368.967Z" fill="#7CA417"/>
<path d="M206.619 3.13249C204.048 6.00971 207.354 14.8862 208.456 17.0288C212.007 24.0076 218.68 30.864 226.577 38.0876C224.618 46.352 220.394 49.9638 217.455 56.4528C211.639 69.3085 217.394 69.8595 217.884 69.8595C225.169 69.7982 233.128 53.9429 234.353 45.0052C238.761 48.9231 243.291 52.9022 247.76 57.1875C248.801 58.1669 249.78 59.2688 250.699 60.432C250.576 61.0442 250.515 61.7175 250.331 62.4522C245.434 81.7356 236.557 84.8577 229.149 94.8362C217.7 110.263 225.169 112.712 225.782 112.834C235.761 114.915 251.495 95.0198 255.168 83.5722C255.78 81.6132 257.066 77.7565 257.556 73.0428C269.616 105.366 257.249 159.543 217.823 147.177C208.762 144.361 211.517 155.197 199.028 161.196C188.436 166.277 176.192 159.298 172.213 157.217C152.193 146.81 138.112 121.466 138.541 96.2442C138.969 72.1245 152.56 49.4128 168.478 37.7203C173.988 33.68 194.865 24.3137 196.762 17.1513C199.089 8.4584 202.15 4.05075 204.354 1.7857C206.129 -0.234471 208.456 1.11231 206.619 3.13249Z" fill="#7CA417"/>
<path d="M467.485 96.4882C467.24 84.8569 462.22 79.4698 465.709 69.3689C466.995 65.7571 469.077 62.2677 467.975 61.2882C466.505 60.0026 460.628 64.5327 458.853 65.7571C444.098 76.164 415.324 67.3487 409.324 65.7571C372.836 56.2684 318.165 90.4277 291.534 113.629C279.228 124.342 230.129 167.133 234.414 221.617C234.598 223.637 232.088 262.142 258.352 269.978C275.004 274.937 285.167 256.449 303.105 264.101C314.859 269.121 318.716 278.365 329.981 281.12C344.98 284.793 360.959 268.203 364.633 264.163C377.918 249.532 373.204 240.839 387.468 213.291C394.141 200.374 399.774 189.539 411.1 178.336C421.507 168.051 429.527 164.562 434.915 159.175C425.671 160.705 414.773 158.501 403.202 152.686C395.305 148.707 388.999 141.85 389.978 140.993C390.835 140.259 399.284 147.666 411.59 148.584C428.181 149.87 436.935 145.891 442.262 142.524C443.364 132.239 440.486 123.179 444.343 121.649C447.465 120.363 450.22 126.056 454.873 125.322C461.791 124.097 467.73 109.528 467.485 96.4882Z" fill="#7CA417"/>
<path d="M293.86 254.429C291.779 267.101 290.738 279.896 290.677 292.69C290.616 299.118 290.86 305.485 291.228 311.913C291.411 315.096 291.656 318.34 291.962 321.524C292.207 324.768 292.452 328.074 292.636 331.318C293.371 344.419 293.309 357.581 292.575 370.681C292.33 375.15 291.962 379.68 291.534 384.149H282.963C283.514 379.497 284.004 374.783 284.432 370.13C285.473 357.336 285.84 344.48 285.412 331.686C285.289 328.502 285.167 325.319 284.983 322.075C284.8 318.83 284.616 315.586 284.493 312.28C284.249 305.73 284.187 299.179 284.371 292.568C284.738 279.467 286.146 266.367 288.534 253.45C290.983 240.533 294.473 227.861 299.125 215.618L300.901 211.026L302.799 206.496C304.084 203.497 305.37 200.497 306.717 197.558C309.411 191.62 312.349 185.743 315.533 180.05C321.9 168.603 329.185 157.706 337.634 147.727C346.021 137.749 355.572 128.628 366.102 120.975C371.367 117.119 376.877 113.629 382.632 110.507L386.978 108.242C388.448 107.508 389.917 106.834 391.386 106.161C394.386 104.814 397.325 103.529 400.386 102.427C412.508 97.7741 425.242 94.7132 438.16 93.1216C425.303 94.9581 412.691 98.3251 400.753 103.284C397.753 104.508 394.815 105.855 391.876 107.202C390.407 107.936 388.999 108.61 387.529 109.405L383.305 111.732C377.673 114.915 372.346 118.527 367.204 122.445C356.98 130.281 347.797 139.463 339.715 149.503C331.634 159.542 324.716 170.439 318.716 181.826C315.716 187.519 312.961 193.334 310.451 199.273C309.166 202.211 307.941 205.211 306.778 208.21L305.003 212.679L303.35 217.209C299.064 229.269 295.942 241.757 293.86 254.429Z" fill="#9FBC50"/>
<path d="M431.12 271.509C430.201 266.978 430.875 265.999 432.528 262.203C435.895 254.184 453.159 252.96 464.057 237.9C470.975 228.35 488.79 234.411 501.157 226.024C509.912 220.025 501.035 215.127 521.972 206.434C553.869 193.273 552.277 173.989 551.114 173.316C549.277 172.275 548.787 177.907 546.155 180.417C533.727 192.171 468.036 157.95 403.754 188.437C375.775 201.721 354.654 222.596 345.593 251.368C338.981 272.427 344.491 284.425 352.45 283.507C361.878 282.466 354.286 287.548 358.817 296.485C377.367 333.644 434.609 288.527 431.12 271.509Z" fill="#346E00"/>
<path d="M290.738 360.213L285.045 359.968C289.759 352.438 294.718 345.031 299.86 337.746C313.941 317.789 329.614 298.811 347.062 281.732C364.572 264.652 383.918 249.409 404.978 237.043C426.038 224.677 448.812 215.189 472.505 209.25C475.444 208.577 478.444 207.842 481.382 207.169L490.321 205.21C496.259 203.863 502.136 202.455 508.014 200.741C513.83 199.027 519.585 197.007 525.095 194.497C530.605 191.987 535.87 188.865 540.461 184.825C535.931 188.926 530.666 192.11 525.217 194.742C519.707 197.374 513.952 199.456 508.136 201.292C502.32 203.067 496.382 204.598 490.504 206.006L481.627 208.087C478.689 208.822 475.75 209.557 472.811 210.291C449.363 216.597 426.895 226.33 406.202 238.941C385.509 251.552 366.531 266.917 349.511 284.119C332.491 301.321 317.309 320.299 303.656 340.317C299.126 346.806 294.84 353.479 290.738 360.213Z" fill="#7CA417"/>
<path d="M308.554 189.601C297.901 163.277 276.351 144.912 254.066 137.872C248.189 136.036 238.149 132.975 230.619 137.933C218.803 145.647 222.231 167.134 217.517 167.746C211.64 168.542 209.926 136.464 191.682 128.506C178.152 122.629 159.234 128.69 148.765 139.035C122.134 165.42 128.072 216.414 142.766 248.37C151.337 267.102 177.111 310.322 209.926 318.035C216.476 319.566 239.557 323.545 245.495 338.543C246.781 341.787 246.597 343.869 248.373 344.848C255.964 348.889 281.8 322.259 296.309 295.507C302.86 283.447 327.9 237.351 308.554 189.601ZM288.167 189.601C287.493 190.274 276.229 182.255 253.699 166.155C250.148 163.645 246.475 160.951 247.026 159.482C247.822 157.401 257.189 158.38 264.229 161.196C280.943 167.808 290.738 187.091 288.167 189.601Z" fill="#346E00"/>
<path d="M179.437 193.641C185.62 188.805 194.436 198.967 207.048 193.702C219.231 188.621 230.741 172.031 226.7 160.277C219.843 140.198 222.965 121.527 217.517 109.467C208.762 89.9999 186.539 75.9199 131.378 58.7179C125.317 56.8201 119.868 55.1673 114.971 53.698C117.664 57.6159 120.297 61.9624 122.44 66.8598C123.664 69.5533 128.562 80.8785 127.46 95.2034C127.092 100.162 126.358 109.896 120.297 112.65C119.807 112.834 117.664 113.385 115.277 112.283C110.746 110.202 110.624 102.243 110.563 88.2859C110.501 65.6354 109.461 56.6365 107.991 51.7391C94.1553 47.9436 85.0332 46.5356 77.1969 48.3721C65.626 51.1269 49.7084 58.1057 41.2598 51.6166C36.3621 47.8212 38.6273 42.3116 36.4845 42.3728C32.0766 42.434 31.9542 67.5944 24.9137 95.6319C14.1387 138.729 15.2407 135.362 15.7305 146.932C15.7917 148.952 15.9753 150.911 16.2202 152.809C61.218 174.97 91.4003 163.951 102.114 166.399C104.073 166.828 111.175 168.481 111.42 171.297C111.726 175.398 97.6449 179.561 94.645 180.479C76.401 185.866 43.0965 189.111 22.3423 175.521C29.7502 192.968 42.1169 207.476 53.5041 220.76C72.6053 243.105 90.1147 263.551 118.338 266.673C135.48 268.571 158.499 262.143 169.825 249.288C186.355 230.494 164.56 205.272 179.437 193.641Z" fill="#9FBC50"/>
<path d="M175.458 376.191C170.682 341.787 155.071 317.3 154.214 311.606C154.153 311.178 153.54 307.138 155.561 305.852C157.52 304.628 161.132 306.525 162.356 307.75C190.09 335.053 176.07 379.313 183.11 403.8C183.539 403.188 184.029 402.514 184.58 401.841C194.62 388.618 229.516 349.867 224.925 299.608C224.313 292.751 220.639 272.978 206.375 265.571C187.457 255.776 176.805 257.123 154.275 266.489C144.969 270.346 153.908 249.716 146.316 232.514C145.582 230.861 136.521 211.087 116.195 203.558C83.9314 191.559 52.5247 221.372 51.1778 222.658C43.0353 230.616 38.6886 238.941 32.7501 250.328C27.73 259.878 21.7914 271.509 19.6487 287.242C17.5059 302.669 21.8527 301.322 19.2202 315.524C16.4652 330.278 10.6492 337.93 14.2612 349.255C14.6898 350.602 15.1796 351.643 15.5469 352.622C21.7915 347.051 30.0564 341.174 39.2396 337.318C43.219 335.604 54.0552 331.012 57.6061 334.93C58.7693 336.216 58.953 338.236 58.6469 339.766C57.3612 345.398 47.7495 347.48 42.362 348.949C30.1789 352.255 21.1793 357.458 14.9347 361.621C11.9348 366.212 5.07797 367.743 1.83322 374.048C-5.57458 388.373 12.9755 412.615 15.0571 415.309C20.0772 421.736 21.6078 421.247 24.6077 426.695C29.8728 436.245 28.8932 444.448 36.1173 449.223C37.7703 450.325 41.26 452.59 40.5865 451.06C39.7294 449.162 39.607 437.286 47.8719 430.674C55.2797 424.736 101.318 441.51 143.561 429.021C145.582 416.839 148.765 396.086 143.745 370.008C141.969 360.886 138.051 344.97 145.582 338.848C147.602 337.195 150.785 336.032 153.54 336.828C162.05 339.277 163.091 358.989 163.458 366.151C164.621 388.373 159.356 410.901 153.724 425.409C162.356 421.736 170.744 416.594 178.396 409.554C179.192 408.82 179.866 408.085 180.539 407.228C179.131 400.616 177.478 390.822 175.458 376.191Z" fill="#7CA417"/>
<path d="M59.9324 366.946C69.4217 346.438 80.9926 326.726 95.1348 308.912C102.175 299.974 109.889 291.526 118.399 283.874C126.909 276.222 136.153 269.304 146.438 263.856C151.581 261.162 156.969 258.836 162.601 257.183C168.233 255.53 174.172 254.49 180.233 254.551C181.763 254.551 183.294 254.673 184.763 254.857C186.294 255.041 187.824 255.285 189.232 255.591C192.11 256.204 194.987 256.938 197.865 257.918C203.497 259.815 208.946 262.509 213.843 265.876C223.761 272.61 231.598 282.037 237.414 292.261C243.291 302.484 247.332 313.564 250.27 324.706C253.27 335.909 255.168 347.295 256.454 358.743C257.005 363.64 257.433 368.538 257.739 373.496H246.719C246.536 368.905 246.291 364.375 245.862 359.783C244.944 348.764 243.413 337.806 240.903 327.093C238.393 316.442 234.843 305.973 229.761 296.485C224.68 286.996 218.007 277.262 209.374 271.079C205.089 267.957 200.313 266.611 195.293 264.713C192.783 263.795 190.212 262.999 187.641 262.387C186.294 262.081 185.069 261.836 183.784 261.652C182.498 261.468 181.212 261.346 179.927 261.285C174.723 261.04 169.335 261.774 164.132 263.182C158.928 264.529 153.846 266.549 148.887 268.998C139.031 273.834 129.909 280.262 121.399 287.486C112.95 294.709 105.114 302.79 97.951 311.361C83.5639 328.501 71.5033 347.662 61.5241 367.803C51.4838 387.943 43.4638 409.125 37.2192 430.796C42.974 408.88 50.443 387.454 59.9324 366.946Z" fill="#9FBC50"/>
<path d="M52.9531 74.1444C56.6264 78.7357 60.5446 83.2046 64.524 87.551C72.544 96.2439 80.8701 104.508 89.4411 112.65C106.522 128.873 124.276 144.483 142.153 159.849C151.091 167.501 160.152 175.092 169.152 182.683L182.743 194.069C185.008 195.967 187.273 197.865 189.538 199.824C190.64 200.803 191.804 201.844 192.906 202.885C194.008 203.986 195.048 205.027 196.089 206.19C198.171 208.455 200.068 210.904 201.721 213.475C203.436 216.046 204.966 218.679 206.313 221.433C209.068 226.882 211.088 232.636 212.925 238.329C213.843 241.207 214.7 244.023 215.435 246.961C216.231 249.961 216.782 252.96 217.333 255.899C218.313 261.837 219.047 267.714 219.721 273.591C221.068 285.344 222.231 297.098 223.639 308.791C225.047 320.483 226.639 332.114 228.598 343.623C232.087 364.192 236.679 384.516 243.168 404.228H233.251C227.496 384.761 223.455 364.866 220.455 344.909C218.68 333.155 217.333 321.34 216.17 309.586C215.007 297.833 214.027 286.018 212.925 274.325C212.374 268.448 211.762 262.633 210.905 256.939C210.476 254.062 209.986 251.246 209.313 248.553C208.64 245.798 207.844 242.921 207.048 240.166C205.395 234.595 203.558 229.147 201.109 224.005C199.946 221.433 198.538 218.923 197.069 216.536C195.599 214.149 193.885 211.883 192.048 209.741C191.13 208.639 190.151 207.659 189.171 206.619C188.13 205.639 187.151 204.599 186.11 203.619C183.967 201.66 181.763 199.701 179.559 197.742L166.274 186.05C157.397 178.275 148.581 170.439 139.765 162.481C122.195 146.687 104.869 130.587 88.1555 113.874C79.8293 105.488 71.6257 96.9785 63.7893 88.1019C59.9324 83.6331 56.1366 79.103 52.5245 74.3893C48.9737 69.6755 45.5452 64.7781 42.9127 59.5134C45.7901 64.7781 49.341 69.4919 52.9531 74.1444Z" fill="#7CA417"/>
<path d="M196.518 605.756C185.498 588.064 205.273 578.637 190.702 541.6C185.927 529.479 173.866 514.175 158.683 503.768C147.296 495.993 140.99 497.891 138.296 492.136C129.358 472.975 170.989 429.021 176.131 425.226C199.518 407.963 234.414 395.474 260.495 393.148C264.658 392.781 307.635 389.414 318.716 410.595C325.267 423.206 315.778 436.796 304.146 465.874C294.35 490.422 298.085 518.46 309.962 544.416C316.574 558.863 331.512 570.617 341.552 582.493C350.919 593.574 343.94 613.592 310.145 623.08C272.984 633.549 215.619 636.426 196.518 605.756Z" fill="#F2A878"/>
<path d="M99.3595 395.23C100.094 393.883 101.87 391.312 101.87 387.761C101.87 383.782 99.6656 378.456 99.3595 377.844C94.0332 366.458 98.4412 335.237 110.318 305.547H346.45C350.858 314.484 354.041 324.463 355.143 335.604C355.756 341.848 359.551 366.641 345.225 387.761C298.024 457.304 245.74 369.886 229.333 375.334C222.905 377.477 221.741 395.781 219.415 432.45C217.885 456.876 219.231 462.998 214.456 474.69C206.497 494.218 187.947 504.87 181.335 509.462C181.335 509.462 156.234 526.97 129.174 524.337C123.42 523.786 119.563 522.134 116.746 519.379C112.828 515.461 112.645 510.257 111.787 506.952C105.604 483.383 100.584 475.914 96.9106 454.794C96.4821 452.223 95.6862 448.611 94.4006 447.326C90.9109 443.837 85.952 444.081 81.9726 442.367C73.2791 438.633 80.8094 426.941 81.9726 424.982C85.7071 418.799 90.666 411.33 99.3595 395.23Z" fill="#FFB383"/>
<path d="M413.426 447.937C408.528 502.666 316.023 511.42 314.002 439.918C312.043 368.355 421.324 360.091 413.426 447.937Z" fill="#1E1735"/>
<path d="M120.726 305.546C120.909 305.975 121.032 306.465 121.216 306.893C124.522 315.464 129.787 323.116 135.786 330.095C147.908 344.175 163.091 354.949 178.519 366.09C186.172 371.784 193.763 377.783 200.681 384.639C207.477 391.618 213.721 399.27 218.374 407.841C220.823 412.065 222.843 416.472 224.68 421.002C226.394 425.532 227.986 430.124 229.149 434.776C231.537 444.081 233.067 453.57 233.557 463.059C229.21 444.571 223.272 426.512 213.232 411.024C208.211 403.311 202.334 396.209 195.6 389.904C188.927 383.537 181.58 377.844 173.927 372.273C166.397 366.58 158.622 361.07 151.275 354.765C143.99 348.46 137.072 341.603 131.195 333.829C125.256 326.115 120.297 317.484 117.665 307.995C117.42 307.138 117.236 306.342 117.053 305.485H120.726V305.546Z" fill="#1E1735"/>
<path d="M340.389 407.411C342.47 404.411 344.735 401.656 346.817 398.84C348.96 396.024 350.919 393.147 352.694 390.086C359.735 378.026 363.286 364.253 364.02 350.479C364.694 336.644 362.918 322.564 358.204 309.769C357.714 308.361 357.163 306.953 356.612 305.606H364.51C364.694 306.157 364.939 306.769 365.122 307.382C369.836 321.523 371.489 336.337 370.081 350.968C369.408 358.253 368 365.538 365.612 372.517C363.224 379.434 360.041 386.168 355.939 392.229C351.837 398.289 346.695 403.493 342.164 408.819C339.899 411.512 337.879 414.39 336.348 417.573C334.756 420.695 333.716 424.123 332.92 427.613C333.348 424.062 334.022 420.511 335.307 417.144C336.471 413.594 338.307 410.41 340.389 407.411Z" fill="#1E1735"/>
<path d="M355.633 305.547C357.469 310.321 359.061 315.341 360.102 320.728C361.204 326.116 367.387 356.785 352.633 385.313C342.654 404.535 330.961 407.78 327.777 427.492C326.246 437.225 327.348 447.265 320.308 459.753C317.492 464.773 314.92 469.119 310.39 472.18C288.044 487.056 262.27 467.956 245.801 447.326C233.985 432.511 234.843 431.654 233.373 424.982C230.741 413.167 232.884 417.391 230.863 411.575C222.904 387.945 186.171 370.927 148.949 340.563C134.317 328.625 126.358 317.484 121.644 305.791C121.583 305.73 121.583 305.608 121.521 305.547H355.633Z" fill="#1E1735"/>
<path d="M443.67 297.22C439.506 298.995 430.752 291.894 428.793 289.935C422.303 283.323 417.161 273.222 412.079 261.652C402.1 260.673 396.406 264.04 388.019 264.897C371.428 266.55 372.959 259.877 373.142 259.326C375.958 251.184 396.713 248.307 407.243 250.327C404.549 243.899 401.733 237.288 398.733 230.676C397.998 229.146 397.141 227.615 396.223 226.146C395.488 226.024 394.692 225.901 393.835 225.84C370.326 223.942 363.469 232.696 349.45 237.227C327.838 244.205 327.9 234.9 328.022 234.104C329.491 222.167 357.714 212.066 372.04 212.311C374.489 212.372 379.326 212.434 384.774 213.658C353.123 187.885 287.738 181.151 286.575 230.064C286.33 241.267 275.188 234.104 263.739 245.797C254.005 255.714 257.189 272.059 257.984 277.324C262.025 303.77 285.044 329.114 313.574 338.235C340.756 346.928 371.428 340.317 390.529 326.971C397.202 322.319 415.63 302.484 424.385 303.096C434.976 303.77 441.098 302.056 444.527 300.464C447.282 298.995 446.669 295.934 443.67 297.22ZM405.896 273.59C405.835 273.957 405.528 274.324 403.998 274.875C402.712 275.365 394.815 278.181 388.876 273.59C387.835 272.794 386.795 271.998 386.917 271.08C387.162 269.243 392.305 268.08 396.529 268.57C401.427 269.121 406.202 271.937 405.896 273.59Z" fill="#9FBC50"/>
<path d="M206.803 380.965C253.393 422.716 217.333 489.932 280.085 522.133C317.859 541.477 292.881 571.658 351.592 591.798C506.85 644.935 397.264 492.81 375.897 470.465C342.899 435.816 169.703 347.724 206.803 380.965Z" fill="#1E1735"/>
<path d="M203.987 391.679C206.619 386.169 209.803 381.701 215.007 379.497C215.986 379.068 221.19 376.864 226.578 378.946C233.312 381.517 236.128 388.863 237.108 392.72C243.781 419.227 232.21 438.571 220.639 448.489C219.292 449.652 210.721 455.651 204.048 447.938C193.457 435.572 196.028 408.391 203.987 391.679Z" fill="#EB9E6C"/>
<path d="M151.579 232.575C151.09 227.494 153.11 223.27 156.355 220.271C154.763 221.128 153.049 221.74 151.151 222.046C144.723 223.209 133.703 221.128 131.376 210.476C130.458 201.048 137.805 196.396 140.988 194.865C145.151 192.845 149.069 192.723 152.253 193.274C148.212 191.498 144.968 188.193 143.927 183.234C142.335 167.317 161.62 160.89 171.783 167.44C173.558 168.542 175.884 170.623 177.231 173.99C177.292 161.624 193.271 152.993 205.087 160.033C213.964 165.359 214.209 176.316 207.72 183.05C207.965 182.867 208.209 182.744 208.516 182.622C211.577 181.214 213.352 180.969 215.556 180.663C215.801 180.602 221.556 179.928 226.882 183.356C239.004 191.131 235.086 208.517 220.392 212.006C216.964 212.802 214.27 212.496 213.107 212.373C212.74 212.312 212.372 212.19 212.005 212.067C212.556 212.373 213.107 212.68 213.658 212.986C225.413 220.76 221.433 237.84 207.046 241.084C203.189 241.941 197.251 242.125 191.19 237.717C190.455 237.167 188.129 235.085 186.843 232.453C186.415 231.535 186.231 230.616 186.108 229.637C186.108 236.554 180.782 243.472 171.844 245.064C167.069 245.982 154.273 245.308 151.579 232.575Z" fill="white"/>
<path d="M184.58 212.557C194.559 210.17 197.252 198.539 189.049 193.458C181.274 188.621 168.846 194.07 169.886 204.232C171.539 212.006 179.498 213.782 184.58 212.557Z" fill="#FFBCB0"/>
<path d="M151.214 222.106C163.825 219.78 170.988 204.782 160.213 196.395C160.152 196.334 151.336 189.845 141.051 194.865C137.868 196.456 130.582 201.048 131.439 210.475C133.766 221.188 144.786 223.27 151.214 222.106Z" fill="#AE9AE3"/>
<path d="M220.456 212.068C235.149 208.579 239.067 191.132 226.945 183.418C221.619 179.99 215.864 180.664 215.619 180.725C213.415 181.031 211.64 181.214 208.579 182.684C206.62 183.602 205.211 185.377 203.375 186.479C203.314 186.54 198.11 190.581 198.967 199.457C199.946 203.865 201.661 207.293 207.109 210.476C207.966 210.966 209.007 210.905 209.864 211.211C211.027 211.578 212.007 212.313 213.231 212.497C214.272 212.558 216.966 212.925 220.456 212.068Z" fill="#AE9AE3"/>
<path d="M164.622 194.192C171.111 192.6 176.131 188.009 177.662 182.193C178.213 180.173 178.213 180.173 177.478 176.806C177.295 175.888 177.601 174.908 177.233 173.99C175.886 170.623 173.56 168.603 171.785 167.44C161.622 160.889 142.276 167.317 143.929 183.234C146.01 192.784 156.051 196.273 164.622 194.192Z" fill="#AE9AE3"/>
<path d="M207.048 241.207C221.435 237.963 225.414 220.822 213.66 213.108C203.375 206.313 187.029 211.639 185.437 225.658C186.171 227.923 185.865 230.433 186.906 232.637C188.131 235.269 190.518 237.35 191.253 237.901C197.253 242.187 203.191 242.064 207.048 241.207Z" fill="#AE9AE3"/>
<path d="M171.785 245.187C185.865 242.738 191.069 226.944 180.417 218.802C169.764 210.599 150.112 217.7 151.581 232.576C154.275 245.309 167.07 245.982 171.785 245.187Z" fill="#AE9AE3"/>
<path d="M199.763 187.887C213.538 183.663 216.782 166.95 205.089 160.033C192.477 152.503 175.152 162.849 177.417 176.5C179.376 186.662 190.763 190.641 199.763 187.887Z" fill="#AE9AE3"/>
<path d="M188.131 320.789C187.641 315.402 189.722 310.994 193.151 307.872C191.498 308.729 189.661 309.403 187.702 309.77C180.968 310.994 169.335 308.791 166.887 297.588C165.907 287.671 173.621 282.773 176.988 281.12C181.335 278.978 185.498 278.855 188.865 279.406C184.58 277.57 181.212 274.019 180.049 268.816C178.335 252.042 198.722 245.308 209.374 252.226C211.211 253.389 213.721 255.593 215.129 259.143C215.19 246.104 231.965 237.044 244.454 244.451C253.821 250.022 254.066 261.592 247.209 268.693C247.454 268.51 247.76 268.387 248.066 268.265C251.311 266.734 253.148 266.551 255.474 266.245C255.719 266.183 261.78 265.51 267.413 269.061C280.208 277.202 276.045 295.568 260.617 299.241C257.005 300.098 254.127 299.73 252.964 299.608C252.536 299.547 252.168 299.424 251.801 299.302C252.413 299.608 252.964 299.914 253.515 300.281C265.882 308.423 261.658 326.421 246.536 329.849C242.434 330.768 236.251 330.951 229.884 326.36C229.088 325.809 226.639 323.605 225.292 320.85C224.863 319.932 224.619 318.891 224.496 317.912C224.496 325.197 218.864 332.482 209.436 334.135C204.415 334.93 190.947 334.257 188.131 320.789Z" fill="white"/>
<path d="M222.782 299.731C233.251 297.221 236.128 284.977 227.496 279.59C219.292 274.509 206.252 280.202 207.293 290.915C209.068 299.18 217.456 301.077 222.782 299.731Z" fill="#FFD700"/>
<path d="M187.641 309.769C200.865 307.321 208.395 291.588 197.069 282.711C197.008 282.65 187.702 275.794 176.927 281.12C173.56 282.772 165.907 287.67 166.825 297.587C169.335 308.79 180.906 311.055 187.641 309.769Z" fill="#D5C7F4"/>
<path d="M260.556 299.241C275.984 295.568 280.147 277.264 267.351 269.061C261.719 265.449 255.658 266.184 255.413 266.245C253.087 266.551 251.25 266.796 248.005 268.265C245.924 269.245 244.454 271.142 242.495 272.244C242.434 272.306 236.985 276.53 237.842 285.896C238.883 290.548 240.659 294.099 246.414 297.466C247.332 298.017 248.373 297.894 249.352 298.201C250.577 298.568 251.617 299.364 252.903 299.547C254.066 299.792 256.882 300.098 260.556 299.241Z" fill="#D5C7F4"/>
<path d="M201.783 280.447C208.64 278.794 213.844 273.957 215.497 267.836C216.048 265.754 216.048 265.754 215.313 262.143C215.129 261.163 215.435 260.122 215.007 259.143C213.599 255.592 211.089 253.45 209.252 252.225C198.538 245.308 178.213 252.103 179.927 268.815C182.192 278.916 192.783 282.65 201.783 280.447Z" fill="#D5C7F4"/>
<path d="M246.475 329.85C261.596 326.422 265.821 308.424 253.454 300.282C242.618 293.12 225.414 298.752 223.7 313.505C224.496 315.893 224.129 318.525 225.231 320.851C226.578 323.606 229.026 325.81 229.822 326.361C236.189 330.952 242.373 330.83 246.475 329.85Z" fill="#D5C7F4"/>
<path d="M209.374 334.073C224.19 331.502 229.639 314.912 218.496 306.28C207.293 297.649 186.661 305.117 188.13 320.789C190.947 334.257 204.415 334.93 209.374 334.073Z" fill="#D5C7F4"/>
<path d="M238.761 273.774C253.27 269.305 256.637 251.797 244.393 244.451C231.108 236.554 212.925 247.389 215.313 261.775C217.333 272.488 229.333 276.712 238.761 273.774Z" fill="#D5C7F4"/>
<path d="M256.515 194.314C256.086 198.661 257.801 202.273 260.556 204.783C259.209 204.048 257.739 203.558 256.148 203.252C250.699 202.273 241.271 204.048 239.312 213.108C238.516 221.128 244.76 225.107 247.515 226.454C251.066 228.168 254.372 228.29 257.127 227.861C253.699 229.392 250.944 232.208 250.025 236.432C248.679 250.022 265.147 255.471 273.779 249.9C275.249 248.92 277.269 247.206 278.432 244.329C278.494 254.92 292.085 262.266 302.186 256.266C309.778 251.736 309.961 242.37 304.39 236.616C304.635 236.738 304.819 236.86 305.064 236.983C307.696 238.207 309.166 238.391 311.063 238.636C311.247 238.636 316.206 239.248 320.736 236.309C331.083 229.698 327.777 214.822 315.226 211.884C312.288 211.21 309.961 211.455 308.982 211.578C308.676 211.639 308.308 211.7 308.002 211.823C308.492 211.578 308.921 211.333 309.41 211.027C319.451 204.415 316.022 189.846 303.778 187.03C300.472 186.295 295.452 186.172 290.248 189.907C289.636 190.335 287.616 192.111 286.514 194.376C286.146 195.171 285.963 195.967 285.84 196.763C285.84 190.825 281.31 184.948 273.657 183.601C269.678 182.867 258.78 183.479 256.515 194.314Z" fill="white"/>
<path d="M284.616 211.392C293.126 213.473 295.452 223.329 288.412 227.675C281.739 231.838 271.209 227.186 272.066 218.493C273.474 211.881 280.269 210.351 284.616 211.392Z" fill="#FFD700"/>
<path d="M256.148 203.252C266.862 205.211 272.984 218.005 263.801 225.167C263.739 225.229 256.209 230.799 247.454 226.453C244.761 225.106 238.516 221.127 239.251 213.108C241.271 204.047 250.638 202.272 256.148 203.252Z" fill="#FFBCB0"/>
<path d="M315.227 211.821C327.777 214.821 331.083 229.636 320.737 236.247C316.145 239.186 311.247 238.573 311.064 238.573C309.166 238.329 307.697 238.145 305.064 236.921C303.35 236.125 302.187 234.594 300.595 233.676C300.534 233.676 296.126 230.187 296.799 222.596C297.656 218.8 299.064 215.923 303.778 213.229C304.513 212.801 305.37 212.862 306.166 212.617C307.146 212.311 308.003 211.638 309.043 211.515C309.962 211.393 312.288 211.148 315.227 211.821Z" fill="#FFBCB0"/>
<path d="M267.596 227.064C273.106 228.411 277.392 232.329 278.739 237.288C279.167 239.002 279.167 239.002 278.616 241.879C278.433 242.675 278.678 243.532 278.371 244.267C277.208 247.144 275.188 248.858 273.719 249.837C265.025 255.469 248.557 249.96 249.965 236.37C251.679 228.289 260.311 225.289 267.596 227.064Z" fill="#FFBCB0"/>
<path d="M303.778 186.968C316.023 189.784 319.451 204.354 309.411 210.965C300.595 216.781 286.697 212.19 285.289 200.252C285.902 198.293 285.657 196.212 286.514 194.314C287.555 192.049 289.575 190.274 290.248 189.845C295.452 186.111 300.472 186.233 303.778 186.968Z" fill="#FFBCB0"/>
<path d="M273.719 183.6C285.718 185.682 290.126 199.15 281.065 206.128C272.004 213.107 255.23 207.047 256.454 194.375C258.781 183.478 269.678 182.866 273.719 183.6Z" fill="#FFBCB0"/>
<path d="M297.534 232.453C309.288 236.065 312.043 250.267 302.064 256.205C291.289 262.633 276.535 253.818 278.494 242.187C280.208 233.494 289.881 230.065 297.534 232.453Z" fill="#FFBCB0"/>
<path d="M451.996 136.22C451.751 138.669 452.731 140.689 454.261 142.097C453.527 141.668 452.669 141.423 451.812 141.24C448.751 140.689 443.486 141.668 442.384 146.749C441.956 151.279 445.445 153.483 446.976 154.218C448.935 155.197 450.833 155.259 452.363 155.014C450.404 155.871 448.874 157.462 448.384 159.789C447.588 167.38 456.832 170.44 461.73 167.318C462.587 166.767 463.689 165.788 464.302 164.196C464.302 170.134 471.954 174.236 477.587 170.869C481.811 168.359 481.933 163.094 478.811 159.85C478.933 159.911 479.056 159.972 479.178 160.034C480.648 160.707 481.505 160.829 482.546 160.952C482.668 160.952 485.423 161.319 487.994 159.666C493.81 155.932 491.912 147.668 484.933 145.953C483.28 145.586 481.995 145.709 481.444 145.77C481.26 145.77 481.076 145.831 480.893 145.892C481.137 145.77 481.444 145.586 481.688 145.464C487.321 141.729 485.362 133.588 478.505 132.057C476.668 131.629 473.852 131.567 470.913 133.649C470.546 133.894 469.444 134.873 468.832 136.159C468.648 136.587 468.526 137.016 468.465 137.505C468.465 134.2 465.893 130.894 461.669 130.159C459.404 129.792 453.282 130.098 451.996 136.22Z" fill="white"/>
<path d="M467.73 145.769C472.505 146.932 473.791 152.442 469.873 154.891C466.138 157.217 460.261 154.585 460.689 149.748C461.485 146.014 465.281 145.157 467.73 145.769Z" fill="#FFD700"/>
<path d="M451.751 141.177C457.751 142.279 461.179 149.442 456.037 153.421C455.975 153.482 451.812 156.543 446.915 154.155C445.384 153.421 441.894 151.217 442.323 146.687C443.425 141.667 448.69 140.626 451.751 141.177Z" fill="#FFBCB0"/>
<path d="M484.872 146.015C491.913 147.668 493.749 155.993 487.933 159.728C485.362 161.381 482.607 161.013 482.485 161.013C481.444 160.891 480.587 160.768 479.117 160.095C478.199 159.667 477.526 158.809 476.607 158.32C476.607 158.32 474.097 156.361 474.526 152.137C475.016 149.994 475.812 148.403 478.444 146.872C478.873 146.627 479.362 146.688 479.791 146.505C480.342 146.321 480.832 145.954 481.383 145.893C481.934 145.77 483.219 145.587 484.872 146.015Z" fill="#FFBCB0"/>
<path d="M458.179 154.523C461.302 155.258 463.689 157.462 464.424 160.217C464.669 161.196 464.669 161.196 464.363 162.788C464.302 163.216 464.424 163.706 464.24 164.135C463.628 165.726 462.465 166.706 461.669 167.257C456.833 170.379 447.588 167.318 448.323 159.727C449.302 155.197 454.078 153.544 458.179 154.523Z" fill="#FFBCB0"/>
<path d="M478.444 132.119C485.301 133.711 487.199 141.852 481.627 145.526C476.73 148.77 468.893 146.199 468.159 139.526C468.526 138.424 468.342 137.261 468.832 136.22C469.444 134.935 470.546 133.955 470.914 133.711C473.791 131.629 476.607 131.69 478.444 132.119Z" fill="#FFBCB0"/>
<path d="M461.608 130.159C468.342 131.322 470.791 138.852 465.71 142.77C460.628 146.688 451.261 143.26 451.935 136.159C453.282 130.098 459.404 129.792 461.608 130.159Z" fill="#FFBCB0"/>
<path d="M474.954 157.523C481.566 159.544 483.097 167.502 477.526 170.808C471.526 174.419 463.2 169.461 464.302 162.972C465.22 158.136 470.669 156.238 474.954 157.523Z" fill="#FFBCB0"/>
<path d="M245.067 166.46C245.557 163.828 247.148 162.052 249.169 161.073C248.25 161.256 247.332 161.318 246.353 161.256C242.985 160.95 237.843 158.318 238.21 152.686C239.128 147.911 243.414 146.625 245.189 146.319C247.516 145.891 249.475 146.381 251.005 147.115C249.23 145.646 248.128 143.565 248.312 140.932C249.781 132.79 260.25 132.362 264.352 137.076C265.086 137.871 265.943 139.218 266.127 141.116C267.903 134.994 277.086 132.974 281.922 138.177C285.596 142.095 284.126 147.544 279.963 149.992C280.086 149.931 280.269 149.931 280.392 149.87C282.106 149.625 283.024 149.748 284.187 149.931C284.31 149.931 287.249 150.421 289.453 152.87C294.35 158.44 289.942 166.521 282.167 166.154C280.331 166.093 279.045 165.542 278.494 165.297C278.31 165.236 278.127 165.113 278.004 164.991C278.249 165.236 278.494 165.419 278.678 165.664C283.392 171.174 278.984 179.071 271.392 178.642C269.372 178.52 266.433 177.785 263.984 174.724C263.678 174.357 262.821 173.01 262.576 171.48C262.515 170.99 262.515 170.5 262.576 169.949C261.597 173.377 257.985 176.071 253.332 175.581C250.822 175.275 244.577 173.133 245.067 166.46Z" fill="white"/>
<path d="M264.229 161.196C269.494 161.441 272.494 156.054 269.188 152.381C266.005 148.891 259.086 149.809 258.168 155.013C257.862 159.114 261.535 161.073 264.229 161.196Z" fill="#FFD700"/>
<path d="M177.417 96.3056C177.417 93.4284 176.07 91.1633 174.049 89.6941C174.968 90.0614 176.008 90.3063 177.049 90.4287C180.723 90.7348 186.783 88.8983 187.457 82.8378C187.396 77.5119 183.049 75.3081 181.212 74.6347C178.763 73.7164 176.559 73.9001 174.845 74.3898C176.988 73.1655 178.641 71.1453 178.947 68.2681C178.947 59.2691 167.744 56.7592 162.417 61.0444C161.499 61.779 160.274 63.0646 159.724 65.0235C158.989 58.106 149.561 54.1881 143.316 58.7794C138.663 62.2688 139.153 68.3905 143.194 71.8187C143.071 71.7575 142.888 71.6962 142.704 71.635C140.928 71.0228 139.888 70.9616 138.663 70.9616C138.541 70.9616 135.296 70.9004 132.48 73.1042C126.113 78.1241 129.296 87.674 137.745 88.7759C139.704 89.0207 141.235 88.7147 141.847 88.531C142.092 88.4698 142.275 88.4086 142.459 88.2861C142.153 88.4698 141.847 88.6534 141.602 88.8983C135.48 93.9181 138.663 103.223 146.928 104.264C149.132 104.509 152.438 104.264 155.622 101.509C155.989 101.203 157.213 99.8562 157.764 98.3258C157.948 97.7748 158.009 97.2851 158.009 96.7341C158.377 100.591 161.805 104.203 166.886 104.57C169.519 104.754 176.621 103.652 177.417 96.3056Z" fill="white"/>
<path d="M157.826 86.9993C152.132 86.2035 149.928 79.8981 154.214 76.5312C158.315 73.3479 165.54 75.7354 165.54 81.4898C165.111 85.9586 160.764 87.4278 157.826 86.9993Z" fill="#FFBCB0"/>
<path d="M177.049 90.4284C169.886 89.8775 164.989 81.858 170.56 76.5321C170.621 76.4709 175.151 72.3693 181.212 74.5731C183.11 75.2465 187.457 77.4504 187.457 82.7763C186.784 88.9592 180.723 90.7345 177.049 90.4284Z" fill="#FFD700"/>
<path d="M137.684 88.7746C129.235 87.6727 126.052 78.1228 132.419 73.103C135.235 70.8992 138.48 70.9604 138.602 70.9604C139.888 71.0216 140.867 71.0216 142.643 71.6338C143.806 72.0623 144.663 72.9806 145.765 73.4703C145.826 73.4703 148.949 75.4905 148.949 80.5103C148.643 83.0202 147.908 85.0404 145.03 87.1218C144.602 87.4279 143.99 87.4891 143.5 87.6727C142.888 87.9176 142.337 88.4073 141.663 88.591C141.174 88.7134 139.704 89.0195 137.684 88.7746Z" fill="#FFD700"/>
<path d="M167.927 75.6131C164.193 75.0621 161.132 72.7971 159.968 69.675C159.54 68.5731 159.54 68.5731 159.724 66.6141C159.785 66.0632 159.54 65.5734 159.724 65.0225C160.275 63.0635 161.499 61.7779 162.417 61.0433C167.744 56.7581 178.947 59.268 178.947 68.267C178.274 73.7153 172.825 76.2865 167.927 75.6131Z" fill="#FFD700"/>
<path d="M146.867 104.323C138.663 103.282 135.419 93.9774 141.541 88.9575C146.928 84.5499 156.356 86.6313 158.071 94.4059C157.765 95.6914 158.132 97.0994 157.642 98.385C157.091 99.9154 155.867 101.262 155.499 101.568C152.377 104.323 149.071 104.568 146.867 104.323Z" fill="#FFD700"/>
<path d="M166.825 104.569C158.805 104.019 155.009 95.4481 160.458 90.2446C165.968 85.0412 177.355 87.9184 177.416 96.3052C176.621 103.651 169.519 104.753 166.825 104.569Z" fill="#FFD700"/>
<path d="M147.908 74.0827C139.949 72.491 137.194 63.3696 143.316 58.7783C149.928 53.8809 160.213 58.6559 159.724 66.4305C159.234 72.1849 153.112 75.0622 147.908 74.0827Z" fill="#FFD700"/>
<path d="M277.514 356.479C277.82 358.132 281.861 359.356 282.902 359.54C286.33 360.152 290.493 359.601 295.146 358.744C297.534 361.621 297.717 364.07 299.187 366.886C302.187 372.334 303.901 370.498 304.023 370.314C305.921 367.743 302.431 360.703 299.615 357.887C302.187 357.397 304.819 356.846 307.513 356.357C308.125 356.234 308.799 356.173 309.472 356.173C309.656 356.357 309.901 356.601 310.084 356.846C315.594 363.703 314.37 367.682 315.9 372.946C318.288 381.088 321.165 379.129 321.349 378.946C324.716 375.946 321.9 365.111 318.839 360.764C318.288 360.03 317.247 358.56 315.717 357.091C330.349 361.438 346.205 380.231 331.328 390.883C327.9 393.332 332.491 395.23 331.267 401.229C330.226 406.31 324.532 408.759 322.757 409.616C313.757 413.901 301.023 412.187 292.208 405.269C283.759 398.719 279.351 387.822 279.473 379.129C279.535 376.068 281.739 366.213 279.718 363.641C277.269 360.519 276.535 358.254 276.29 356.846C276.229 355.744 277.331 355.255 277.514 356.479ZM292.82 363.152C292.697 363.274 292.697 363.397 292.82 364.009C292.942 364.498 293.738 367.559 296.371 368.416C296.799 368.539 297.289 368.722 297.534 368.478C298.024 367.988 297.35 366.213 296.309 364.988C295.146 363.58 293.248 362.723 292.82 363.152Z" fill="#7CA417"/>
<path d="M319.145 413.473C318.839 410.596 320.002 408.208 321.839 406.555C320.92 407.045 319.941 407.351 318.9 407.596C315.288 408.269 309.043 407.045 307.758 401.046C307.268 395.72 311.37 393.087 313.145 392.23C315.472 391.067 317.676 391.006 319.512 391.312C317.247 390.333 315.41 388.435 314.798 385.619C313.88 376.62 324.777 373.008 330.532 376.742C331.512 377.355 332.858 378.518 333.593 380.416C333.654 373.437 342.654 368.539 349.327 372.518C354.347 375.518 354.47 381.701 350.796 385.497C350.919 385.435 351.103 385.313 351.225 385.252C352.939 384.456 353.98 384.333 355.204 384.15C355.327 384.15 358.572 383.721 361.633 385.68C368.489 390.027 366.285 399.883 357.959 401.842C356 402.331 354.47 402.148 353.857 402.025C353.613 402.025 353.429 401.903 353.245 401.842C353.551 402.025 353.857 402.148 354.164 402.393C360.776 406.8 358.51 416.411 350.429 418.248C348.225 418.738 344.919 418.799 341.491 416.35C341.062 416.044 339.777 414.881 339.042 413.412C338.797 412.922 338.675 412.371 338.613 411.82C338.613 415.738 335.613 419.656 330.532 420.513C327.9 421.003 320.675 420.635 319.145 413.473Z" fill="white"/>
<path d="M337.756 402.146C343.389 400.8 344.919 394.249 340.266 391.372C335.858 388.617 328.879 391.678 329.43 397.433C330.41 401.84 334.879 402.881 337.756 402.146Z" fill="#FFD700"/>
<path d="M318.9 407.534C326.002 406.249 330.042 397.801 323.981 393.026C323.92 392.964 318.961 389.291 313.206 392.169C311.431 393.026 307.268 395.658 307.819 400.984C309.043 407.045 315.288 408.208 318.9 407.534Z" fill="#AE9AE3"/>
<path d="M357.959 401.902C366.224 399.943 368.428 390.087 361.633 385.741C358.633 383.843 355.388 384.211 355.204 384.211C353.98 384.394 352.939 384.517 351.225 385.313C350.123 385.863 349.327 386.843 348.286 387.455C348.286 387.455 345.348 389.781 345.776 394.801C346.327 397.311 347.307 399.209 350.368 400.984C350.858 401.29 351.409 401.229 351.96 401.413C352.633 401.596 353.184 402.025 353.858 402.147C354.47 402.147 356 402.331 357.959 401.902Z" fill="#AE9AE3"/>
<path d="M326.491 391.803C330.165 390.884 332.981 388.313 333.838 385.069C334.144 383.967 334.144 383.967 333.777 382.008C333.654 381.457 333.838 380.906 333.654 380.416C332.92 378.518 331.573 377.355 330.593 376.743C324.838 373.009 313.941 376.682 314.859 385.62C315.961 391.007 321.655 392.966 326.491 391.803Z" fill="#AE9AE3"/>
<path d="M350.429 418.308C358.51 416.472 360.776 406.799 354.164 402.453C348.348 398.596 339.103 401.657 338.246 409.554C338.675 410.84 338.491 412.248 339.042 413.472C339.777 414.941 341.062 416.166 341.491 416.41C344.919 418.859 348.225 418.798 350.429 418.308Z" fill="#AE9AE3"/>
<path d="M330.532 420.574C338.491 419.228 341.429 410.29 335.43 405.699C329.43 401.046 318.349 405.086 319.145 413.473C320.675 420.636 327.899 421.003 330.532 420.574Z" fill="#AE9AE3"/>
<path d="M346.327 388.251C354.102 385.863 355.939 376.436 349.327 372.518C342.225 368.294 332.43 374.11 333.716 381.823C334.818 387.578 341.246 389.781 346.327 388.251Z" fill="#AE9AE3"/>
</svg>
